<svg width="92" height="72" viewBox="0 0 92 72" fill="none" xmlns="http://www.w3.org/2000/svg">
<g clip-path="url(#clip0_45_456)">
<path d="M45.9994 65.7622C50.4943 64.6941 54.6715 62.5817 58.1894 59.5977C60.9348 57.0628 63.1504 54.0129 64.7089 50.623C66.2674 47.2331 67.1382 43.57 67.2712 39.8441C67.3688 35.8116 66.586 31.806 64.9767 28.1043C63.3675 24.4025 60.9702 21.0929 57.9506 18.4042C54.6226 15.5539 50.3888 13.9689 45.9994 13.93C41.6072 13.967 37.3703 15.5522 34.0402 18.4042C31.0224 21.0939 28.627 24.4039 27.0195 28.1056C25.4119 31.8072 24.6307 35.8123 24.7296 39.8441C25.0894 47.0827 27.9529 53.9744 32.8343 59.3501C36.4407 62.8066 41.0453 65.0494 45.9994 65.7622V65.7622ZM45.9994 34.6526C47.6023 34.6773 49.1847 35.0163 50.6561 35.6502C52.1274 36.284 53.459 37.2003 54.5747 38.3466C55.6905 39.493 56.5685 40.847 57.1586 42.3313C57.7488 43.8156 58.0395 45.4011 58.0143 46.9973C57.8787 51.6317 56.1652 56.0826 53.155 59.6195C51.1533 61.5061 48.6791 62.8222 45.9914 63.43C44.4017 63.2778 42.86 62.8033 41.4614 62.0355C40.0627 61.2677 38.8367 60.223 37.8588 58.9656C35.5633 55.3707 34.2302 51.2505 33.9865 46.9973C33.9612 45.4013 34.2519 43.8159 34.8419 42.3317C35.4319 40.8476 36.3098 39.4937 37.4253 38.3473C38.5408 37.201 39.8721 36.2847 41.3433 35.6507C42.8144 35.0168 44.3966 34.6776 45.9994 34.6526Z" fill="url(#paint0_linear_45_456)"/>
<path d="M69.001 72.0001C56.2976 72.0001 46 68.6989 46 64.6269C46 60.5549 56.2976 57.2537 69.001 57.2537C77.2095 57.5216 85.178 60.076 92.0019 64.6269C85.178 69.1777 77.2095 71.7322 69.001 72.0001Z" fill="url(#paint1_linear_45_456)"/>
<path d="M22.999 72.0001C35.7024 72.0001 46 68.6989 46 64.6269C46 60.5549 35.7024 57.2537 22.999 57.2537C14.7905 57.5216 6.82196 60.076 -0.00195312 64.6269C6.82196 69.1777 14.7905 71.7322 22.999 72.0001Z" fill="url(#paint2_linear_45_456)"/>
<path d="M51.928 5.90291C51.928 7.0704 51.5803 8.21164 50.9289 9.18236C50.2776 10.1531 49.3518 10.9097 48.2686 11.3565C47.1854 11.8032 45.9935 11.9201 44.8436 11.6924C43.6937 11.4646 42.6375 10.9024 41.8085 10.0769C40.9794 9.25137 40.4149 8.19957 40.1862 7.05452C39.9574 5.90947 40.0748 4.72258 40.5235 3.64397C40.9722 2.56535 41.732 1.64342 42.7068 0.994805C43.6816 0.346185 44.8277 0 46.0001 0C47.5723 0 49.08 0.62191 50.1917 1.72892C51.3034 2.83593 51.928 4.33737 51.928 5.90291Z" fill="url(#paint3_linear_45_456)"/>
<path d="M46.0006 13.9241C46.0006 13.9241 58.4055 25.3375 58.4055 39.4181C58.4055 53.4987 46.0006 64.9122 46.0006 64.9122C46.0006 64.9122 33.5957 53.4987 33.5957 39.4181C33.5957 25.3375 46.0006 13.9241 46.0006 13.9241Z" fill="url(#paint4_linear_45_456)"/>
</g>
<defs>
<linearGradient id="paint0_linear_45_456" x1="67.2793" y1="39.8461" x2="24.7212" y2="39.8461" gradientUnits="userSpaceOnUse">
<stop stop-color="#B8DEDE"/>
<stop offset="1" stop-color="#0098A8"/>
</linearGradient>
<linearGradient id="paint1_linear_45_456" x1="45.08" y1="64.6269" x2="89.6098" y2="64.6269" gradientUnits="userSpaceOnUse">
<stop stop-color="#66BDC4"/>
<stop offset="1" stop-color="#0098A8"/>
</linearGradient>
<linearGradient id="paint2_linear_45_456" x1="45.908" y1="64.8333" x2="1.30789" y2="60.9844" gradientUnits="userSpaceOnUse">
<stop stop-color="#66BDC4"/>
<stop offset="1" stop-color="#0098A8"/>
</linearGradient>
<linearGradient id="paint3_linear_45_456" x1="40.0723" y1="5.9029" x2="51.928" y2="5.9029" gradientUnits="userSpaceOnUse">
<stop stop-color="#B8DEDE"/>
<stop offset="1" stop-color="#0098A8"/>
</linearGradient>
<linearGradient id="paint4_linear_45_456" x1="46.0006" y1="13.9241" x2="46.0006" y2="64.9122" gradientUnits="userSpaceOnUse">
<stop stop-color="#B8DEDE"/>
<stop offset="1" stop-color="#0098A8"/>
</linearGradient>
<clipPath id="clip0_45_456">
<rect width="92" height="72" fill="white"/>
</clipPath>
</defs>
</svg>
