<svg width="169" height="169" viewBox="0 0 169 169" fill="none" xmlns="http://www.w3.org/2000/svg">
<path d="M82.7505 117.293C86.8105 109.619 84.764 84.533 84.764 84.467C84.731 84.5 59.6286 82.2885 51.9377 86.3155C44.2304 90.3424 32.3311 99.6176 38.2395 130.76C69.3494 136.817 78.6741 124.968 82.7505 117.293Z" fill="#DCE4FF"/>
<path d="M117.623 82.7507C109.932 86.7776 84.8464 84.5991 84.7969 84.5991C84.8299 84.5661 82.7504 59.4471 86.8104 51.7728C90.8704 44.0985 100.212 32.2487 131.321 38.3056C137.246 69.465 125.331 78.7237 117.623 82.7507Z" fill="#DCE4FF"/>
<path d="M52.0861 82.536C59.7604 86.596 84.8464 84.5495 84.9124 84.5495C84.8794 84.5165 87.0909 59.414 83.064 51.7232C79.037 44.0159 69.7618 32.1166 38.619 38.025C32.5455 69.1348 44.4118 78.4595 52.0861 82.536Z" fill="#DCE4FF"/>
<path d="M86.6289 117.244C82.602 109.553 84.7805 84.467 84.7805 84.4175C84.8135 84.4505 109.932 82.371 117.607 86.431C125.281 90.491 137.131 99.8322 131.074 130.942C99.9146 136.85 90.6559 124.951 86.6289 117.244Z" fill="#DCE4FF"/>
<path d="M106.681 109.091C104.106 100.806 84.8793 84.5495 84.8298 84.5165C84.8298 84.5495 65.5532 100.806 62.9786 109.091C60.404 117.392 58.5886 132.378 84.8298 150.153C111.088 132.378 109.256 117.392 106.681 109.091Z" fill="#2030A0"/>
<path d="M106.681 59.8927C104.106 68.1942 84.8793 84.434 84.8298 84.467C84.8298 84.434 65.5532 68.1777 62.9786 59.8927C60.404 51.5912 58.5886 36.6222 84.8298 18.831C111.088 36.6222 109.256 51.5912 106.681 59.8927Z" fill="#2030A0"/>
<path d="M60.0739 106.681C68.3589 104.107 84.6152 84.8796 84.6482 84.8301C84.6152 84.8301 68.3589 65.5535 60.0739 62.9789C51.7725 60.4043 36.7869 58.5888 19.0122 84.8301C36.7869 111.088 51.7725 109.256 60.0739 106.681Z" fill="#2030A0"/>
<path d="M109.272 106.681C100.971 104.09 84.731 84.8631 84.698 84.8301C84.731 84.8301 100.987 65.5535 109.272 62.9789C117.574 60.4043 132.543 58.5888 150.334 84.8301C132.543 111.088 117.574 109.256 109.272 106.681Z" fill="#2030A0"/>
<path d="M65.2895 37.728C60.0908 47.0197 61.1636 55.0571 62.8139 60.1733C65.2895 67.8146 82.107 82.2225 84.8302 84.5165C84.9952 81.5623 86.1505 59.0015 82.239 51.8223C79.6974 47.1187 75.489 40.4676 65.2895 37.728Z" fill="white"/>
<path d="M37.9263 104.14C40.8145 93.8907 47.1024 89.1706 51.8886 86.728C59.0348 83.0641 81.2985 84.2029 84.8304 84.5C82.8664 86.7115 67.4188 104.783 59.5794 107.11C54.4632 108.629 47.0859 109.404 37.9263 104.14Z" fill="white"/>
<path d="M104.172 131.19C109.965 121.139 108.513 113.877 106.863 108.761C104.387 101.119 87.5365 86.794 84.8299 84.5C84.6648 87.4542 83.229 109.999 87.1239 117.178C89.682 121.865 93.973 128.433 104.172 131.19Z" fill="white"/>
<path d="M131.47 65.57C122.212 59.8762 114.125 61.3285 109.008 62.9789C101.367 65.4545 87.1078 81.7934 84.8137 84.5C87.7679 84.6651 110.18 86.299 117.359 82.404C122.063 79.8459 128.731 75.753 131.47 65.57Z" fill="white"/>
<path d="M38.3389 65.2895C41.1115 75.5715 47.5646 80.044 52.3177 82.5361C59.4309 86.266 81.2985 84.7642 84.8304 84.5001C82.8829 82.2721 68.1614 65.3886 60.3551 62.979C55.2554 61.4111 47.383 60.0908 38.3389 65.2895Z" fill="#535BFF"/>
<path d="M65.4211 131.057C75.7031 128.285 80.2746 121.947 82.7667 117.194C86.4966 110.081 85.0773 88.0483 84.8297 84.5C82.6017 86.4475 65.5201 100.773 62.929 109.256C61.3777 114.356 60.0739 121.799 65.4211 131.057Z" fill="#535BFF"/>
<path d="M131.47 104.107C128.697 93.8247 122.36 89.2366 117.607 86.7445C110.494 82.9981 88.3619 84.2359 84.8301 84.5C86.7775 86.728 101.218 104.321 109.041 106.731C114.141 108.299 121.848 109.751 131.47 104.107Z" fill="#535BFF"/>
<path d="M104.272 37.9755C93.9899 40.7482 89.8145 47.4818 87.3224 52.2349C83.5925 59.3481 84.5827 80.9517 84.8468 84.5C87.0748 82.5526 104.47 68.0951 106.879 60.2888C108.431 55.1891 109.718 47.3167 104.272 37.9755Z" fill="#535BFF"/>
</svg>
